<svg width="2500" height="2500" viewBox="0 0 1320 1320" fill="none" xmlns="http://www.w3.org/2000/svg"><path d="M569.119 678.475a205 205 0 0 1 1.482 7.189c1.522 8.221 4.152 12.475 5.192 20.771 1.807 14.418-3.175 37.055-3.195 37.147.027.023 4.071 3.456 5.591 6.391 2.934 5.662.018 16.314 0 16.377-.027.018-3.97 2.704-5.591 5.192-3.651 5.604-.021 17.111 0 17.176l-4.793 1.997v11.983c-.009.013-4.192 5.815-5.993 9.986-2.766 6.411-3.589 17.502-3.594 17.575-.022.022-6.516 6.606-8.388 15.578-1.875 8.987-11.014 19.438-13.477 31.555-24.366 33.552-34.708 61.666-36.976 99.459h301.422c-2.131-35.506-16.533-67.705-39.022-92.413-.018-.099-4.8-26.338-13.428-40.598-5.999-9.914-19.091-22.688-19.173-22.768l-7.191-15.178 1.598-24.366-2.796-16.776-3.595-21.17-1.198-41.94 7.19-7.191v-10.385l2.747-5.591h137.556q4.973 0 9.886.237l.815.041q2.895.15 5.77.382l.344.027.432.037.869.074q1.037.093 2.07.195l.503.05a207 207 0 0 1 4.703.533l.292.037a210 210 0 0 1 2.588.344l.297.042.918.131q1.06.156 2.117.322l.399.062.262.042q1.11.178 2.217.366l.646.114.63.11q1.656.296 3.301.617l.355.069q.49.096.977.196l.26.053.768.158.495.103.591.126.658.141.721.158 1.421.32.232.052q1.673.385 3.333.797l.29.071.18.045q.908.228 1.813.463l.521.137.668.178.466.124q1.116.3 2.227.614l.178.05q1.717.485 3.421 1l.15.045 1.235.378q3.383 1.048 6.714 2.212l.347.121q.316.11.631.222l.524.186.761.275q.207.074.413.15l.491.18.698.258a196 196 0 0 1 2.293.868l.42.163q.41.159.818.321a199 199 0 0 1 7.515 3.134l.314.139q.894.397 1.783.802l.908.417a145 145 0 0 1 2.282 1.068 193 193 0 0 1 3.406 1.66q.466.233.93.468.64.324 1.28.652.492.254.983.51l1.098.577q.543.288 1.083.579.553.295 1.102.594.536.294 1.071.59.515.285 1.027.571l1.102.623q.521.296 1.041.596.505.292 1.008.587.563.329 1.125.661.507.302 1.012.606.516.31 1.033.624.522.319 1.043.641.516.318 1.031.64.541.34 1.08.683a147 147 0 0 1 1.913 1.229q.587.38 1.171.766.424.28.846.563.556.371 1.11.745l.93.635q.567.389 1.132.78l.82.576a131 131 0 0 1 1.997 1.42q.566.408 1.13.82.417.306.833.614.55.406 1.098.815l.828.626q.574.435 1.145.873l.697.54q.61.473 1.217.95.376.297.75.596.56.443 1.114.891.405.328.808.658.525.428 1.048.859.474.393.944.788.436.362.868.728.47.399.937.8.439.376.876.753a185 185 0 0 1 1.854 1.628q.492.438.98.878.417.374.833.752c.298.27.588.543.888.815.31.283.61.565.92.85.28.259.55.52.83.781.31.289.61.578.92.869.29.276.58.554.86.832.3.282.59.565.88.849.28.272.55.547.83.821.3.3.61.599.91.901q.39.394.78.792c.31.308.61.615.91.925l.78.798.9.941c.25.261.5.525.74.789.32.331.63.662.94.995.27.289.53.58.8.87l.78.85c.32.352.64.706.95 1.059l.66.738.93 1.05.69.791c.29.346.59.694.89 1.041.22.261.45.521.67.783q.465.556.93 1.116c.21.248.41.495.62.745.29.348.57.699.86 1.05.23.286.46.571.7.859.22.273.43.547.65.821.3.369.59.738.88 1.11l.6.766c.3.384.6.767.89 1.153.19.245.38.493.56.74.31.399.61.798.91 1.199.17.237.35.475.53.713.3.411.61.823.91 1.237.16.23.33.461.5.692.3.421.61.842.91 1.266l.69.987c.23.321.45.642.68.964.24.348.48.697.71 1.046.23.326.45.652.67.98.23.334.45.671.68 1.007.22.34.45.68.68 1.022.19.3.39.602.59.903.25.385.5.769.74 1.155.18.276.36.554.53.832.27.417.53.834.79 1.254l.45.719c.27.448.55.897.82 1.347l.42.688c.28.474.57.948.85 1.425.15.251.29.503.44.754.25.422.5.844.74 1.268l.57.994c.22.395.45.79.67 1.187l.24.434c.31.56.62 1.122.92 1.686.2.354.39.71.58 1.066l.54 1.018c.21.387.41.777.61 1.166l.54 1.047c.18.341.35.685.52 1.027.2.384.39.768.59 1.154.19.401.39.805.59 1.207.15.314.31.628.46.943.17.363.35.728.52 1.092.19.406.39.812.58 1.219.12.27.25.541.37.812l.66 1.434c.03.059.05.118.08.177q1.47 3.253 2.82 6.565c.03.063.05.127.08.19.28.682.55 1.366.82 2.051.23.574.45 1.149.67 1.725.09.217.17.435.25.652.03.071.06.142.08.212.12.297.23.593.34.89.04.099.07.199.11.299.39 1.048.77 2.1 1.15 3.156.05.154.1.308.16.462.08.243.17.485.25.729.19.546.38 1.094.56 1.643l.24.696c.18.564.37 1.13.55 1.696.07.222.14.446.22.669l.15.488q.66 2.111 1.29 4.242l.03.111a44 44 0 0 1 .31 1.083c.18.613.35 1.227.52 1.841.05.178.1.356.14.533.17.623.34 1.248.5 1.873.44 1.669.86 3.346 1.25 5.032.18.756.35 1.513.52 2.272.04.174.08.349.11.523l.42 1.933.09.446c.04.206.09.414.13.621l.36 1.81c.05.276.1.552.16.827.02.125.04.25.07.374.04.259.09.517.14.776l.12.686q.285 1.566.54 3.139l.06.323.33 2.137a202 202 0 0 1 1.96 19.035c.03.45.05.901.07 1.353.02.468.05.936.07 1.405a217 217 0 0 1 .18 8.292H863.487c75.041 0 140.553 40.815 175.533 101.456a201.4 201.4 0 0 1 18.74 43.706c.26.86.51 1.72.75 2.59a187 187 0 0 1 1.67 6.37c.4 1.61.77 3.22 1.12 4.84a187 187 0 0 1 .69 3.24c.11.55.22 1.09.32 1.63.32 1.64.61 3.28.89 4.92a208 208 0 0 1 1.42 9.96c.19 1.68.37 3.35.52 5.04.11 1.12.2 2.25.28 3.38a201 201 0 0 1 .54 19.27c-.03 1.75-.08 3.49-.16 5.24-.06 1.25-.13 2.5-.2 3.75-.09 1.33-.18 2.66-.29 3.99l-.21 2.37c-.08.84-.17 1.68-.26 2.52-.12 1.17-.26 2.34-.4 3.5-.13 1.02-.26 2.04-.4 3.06q-.225 1.59-.48 3.18a195 195 0 0 1-1.18 6.84c-.35 1.8-.72 3.59-1.11 5.38l-.18.79c-.14.64-.29 1.28-.44 1.92-.38 1.63-.78 3.26-1.21 4.88-.08.33-.17.67-.26 1l-.18.65c-.16.61-.33 1.22-.5 1.83-.28.98-.56 1.96-.85 2.94-.06.2-.12.4-.18.61l-.18.58c-.05.17-.1.34-.15.5-.07.24-.15.48-.22.72-.18.59-.37 1.18-.56 1.76-.44 1.38-.9 2.76-1.37 4.13-.2.59-.41 1.17-.62 1.76a117 117 0 0 1-1.26 3.45c-.21.57-.43 1.15-.65 1.72-.24.61-.47 1.21-.71 1.81-.07.18-.14.36-.21.53s-.14.33-.2.49c-.08.19-.16.38-.23.57-.1.24-.2.49-.3.73-.06.14-.12.29-.18.44-.44 1.05-.89 2.1-1.34 3.14l-.09.21c-.28.66-.58 1.32-.87 1.97-.05.11-.1.22-.14.32l-.87 1.89c-.05.12-.11.24-.17.36-.13.29-.27.58-.4.87-.22.45-.43.91-.65 1.36-.15.3-.29.6-.44.9l-.66 1.35c-.11.23-.23.45-.34.67-.25.51-.51 1.02-.76 1.52-.14.27-.28.53-.41.79-.23.45-.46.89-.7 1.33-.18.34-.36.69-.54 1.03-.2.37-.4.75-.61 1.13-.16.3-.33.61-.5.91-.23.43-.47.85-.7 1.28-.13.23-.26.46-.4.7-.26.47-.53.95-.8 1.42-.15.25-.29.5-.44.75-.26.45-.52.89-.78 1.34-.18.31-.37.62-.55.92-.23.38-.45.76-.68 1.14-.19.32-.39.63-.59.95-.23.39-.47.78-.71 1.17-.17.27-.35.54-.52.82-.25.4-.51.81-.77 1.22l-.57.87-.76 1.18c-.21.32-.42.64-.63.95-.23.34-.46.68-.68 1.02-.22.33-.45.65-.67.98-.25.37-.5.74-.76 1.11-.2.29-.41.58-.61.87-.24.35-.48.69-.72 1.03l-.84 1.17c-.19.27-.39.54-.58.81-.24.33-.49.66-.73.99l-.74 1.01c-.23.3-.46.61-.69.91-.25.33-.5.66-.75.98-.28.38-.58.76-.87 1.13-.2.26-.4.53-.61.79l-.9 1.14c-.2.25-.4.5-.59.75-.29.35-.57.69-.85 1.04-.25.3-.49.6-.74.9-.26.32-.52.63-.78.95-.24.29-.49.58-.73.87-.31.37-.62.73-.93 1.09-.21.25-.42.5-.64.74-.28.34-.57.67-.86 1-.26.3-.52.6-.78.89-.25.28-.5.55-.75.83a78 78 0 0 1-1.68 1.86c-.26.28-.52.57-.79.86l-.88.94c-.27.29-.55.58-.83.87-.27.29-.54.58-.82.86-.27.29-.55.57-.82.86-.29.29-.57.58-.86.87s-.58.59-.87.88-.57.57-.86.85c-.28.28-.56.56-.84.83-.3.3-.61.6-.92.9l-.83.8c-.28.27-.56.53-.85.8-.31.3-.63.6-.94.89l-.91.85c-.27.24-.53.48-.795.72l-1.058.96-.802.72c-.266.24-.533.47-.801.71l-1.06.93c-.271.23-.543.46-.815.7-.334.28-.668.57-1.004.86-.277.23-.556.47-.835.7-.341.29-.682.57-1.025.86-.274.22-.551.45-.826.67-.363.3-.727.6-1.092.89-.25.21-.501.41-.752.61-.37.29-.74.59-1.111.88-.29.23-.581.46-.872.68-.351.28-.701.55-1.053.82l-.87.66c-.337.26-.673.52-1.011.77l-1.044.78c-.305.22-.61.45-.917.67-.321.24-.644.47-.967.71l-.969.69c-.339.25-.68.49-1.02.73l-.995.69-1.037.72c-.33.23-.66.45-.991.68l-.98.66c-.335.22-.67.45-1.007.67l-1.147.75c-.285.18-.569.37-.855.56-.413.26-.828.53-1.244.79l-.805.51c-.366.23-.735.46-1.103.68-.361.23-.722.45-1.085.67-.337.21-.676.41-1.014.61-.323.2-.645.39-.969.59-.383.22-.767.45-1.151.67-.337.2-.675.4-1.013.59-.39.23-.78.45-1.171.67-.289.17-.577.33-.867.5l-1.192.66-1.041.57c-.358.2-.717.39-1.076.58l-1.059.57c-.35.19-.703.37-1.054.56-.377.19-.754.39-1.132.58-.375.2-.752.39-1.128.58-.325.16-.651.33-.977.49-.413.21-.827.41-1.241.62-.335.16-.671.33-1.007.49l-1.182.57c-.335.16-.67.32-1.006.47-.573.27-1.146.54-1.722.8l-.326.15a165 165 0 0 1-4.263 1.89c-.035.01-.07.03-.105.04q-1.026.45-2.059.87l-.725.3c-.126.05-.253.11-.38.16l-.612.24-.571.24c-.234.09-.469.18-.703.28-.12.04-.241.09-.361.14l-.695.27c-.189.07-.379.15-.569.22-.123.05-.246.1-.369.14-.255.1-.509.2-.764.29-.222.09-.444.17-.666.25-.145.06-.29.11-.435.17-.253.09-.506.19-.759.28-.126.05-.252.09-.378.14l-.677.24c-.195.07-.39.15-.586.22a7 7 0 0 0-.413.14c-.242.09-.484.17-.727.26-.183.06-.367.13-.55.19-.213.08-.425.15-.638.22-.101.04-.201.07-.302.11l-.902.3-.347.12c-.255.08-.51.17-.765.26-.2.06-.4.13-.6.19-.201.07-.402.13-.604.2l-.367.12c-.279.09-.559.18-.839.26-1.038.33-2.079.65-3.125.97-.121.03-.243.07-.365.11-.194.05-.388.11-.583.17-.226.07-.452.13-.679.2-.094.02-.189.05-.284.08-.686.2-1.374.39-2.063.58-.152.04-.304.09-.456.13-.275.07-.55.15-.825.22-.087.03-.173.05-.259.07l-.905.24c-.09.03-.181.05-.271.07-.721.19-1.444.38-2.169.56-.138.03-.276.07-.414.1-.257.06-.514.13-.771.19l-.356.09c-.673.16-1.348.32-2.023.47-.226.06-.452.11-.678.16l-.652.15c-.064.01-.128.02-.193.04-.339.07-.679.15-1.019.22-.078.02-.156.04-.234.05-.33.08-.661.15-.992.22a294 294 0 0 1-6.136 1.19c-.135.02-.271.05-.407.07q-1.692.3-3.394.57c-.044.01-.089.01-.133.02-.345.05-.691.11-1.036.16-.243.04-.486.07-.729.11l-.604.09c-.037.01-.073.01-.109.02l-2.155.3-.922.12c-.607.08-1.214.15-1.822.23l-.761.09c-.167.02-.334.04-.501.05-.32.04-.641.08-.962.11l-.294.03c-.136.02-.271.03-.407.05l-2.075.21-1.019.09-.339.03-.676.06c-.211.02-.422.04-.633.05-.047.01-.094.01-.141.01-2.935.24-5.889.42-8.858.53-.048.01-.095.01-.143.01-2.113.08-4.235.12-6.364.14H456.864c-2.569 0-5.128-.05-7.675-.14-.047 0-.095 0-.142-.01-2.97-.11-5.923-.29-8.859-.53-.046 0-.093 0-.14-.01-.211-.01-.422-.03-.633-.05l-.677-.06-.339-.03-1.018-.09-2.075-.21c-.136-.02-.272-.03-.408-.05l-.294-.03c-.32-.03-.641-.07-.961-.11-.167-.01-.334-.03-.501-.05l-.761-.09c-.608-.08-1.216-.15-1.822-.23l-.922-.12-2.156-.3c-.036-.01-.072-.01-.108-.02l-.604-.09c-.243-.04-.486-.07-.729-.11-.345-.05-.69-.11-1.035-.16-.045-.01-.09-.01-.135-.02q-1.701-.27-3.393-.57c-.136-.02-.272-.05-.408-.07-1.03-.19-2.058-.38-3.084-.58-1.02-.2-2.037-.4-3.051-.61-.332-.07-.662-.14-.993-.22-.077-.01-.155-.03-.233-.05-.34-.07-.68-.15-1.02-.22a1.3 1.3 0 0 0-.193-.04l-.651-.15c-.633-.14-1.265-.29-1.896-.44-.175-.04-.349-.08-.524-.13l-.638-.15c-.257-.06-.514-.13-.77-.19-.138-.03-.277-.07-.414-.1-.725-.18-1.447-.37-2.168-.56a3 3 0 0 1-.273-.07l-.904-.24c-.086-.02-.173-.04-.259-.07-.275-.07-.55-.15-.825-.22-.152-.04-.304-.09-.456-.13-.689-.19-1.377-.38-2.064-.58a3 3 0 0 0-.284-.08c-.226-.07-.453-.13-.679-.2-.194-.06-.388-.12-.583-.17a5 5 0 0 0-.365-.11c-1.045-.32-2.087-.64-3.125-.97-.28-.08-.559-.17-.839-.26l-.367-.12c-.201-.07-.402-.13-.603-.2-.2-.06-.4-.13-.6-.19-.255-.09-.511-.18-.766-.26l-.346-.12-.903-.3c-.1-.04-.201-.07-.301-.11-.213-.07-.426-.14-.638-.22-.184-.06-.367-.13-.551-.19-.242-.09-.485-.17-.726-.26-.138-.05-.276-.1-.414-.14-.195-.07-.39-.15-.585-.22l-.677-.24c-.126-.05-.252-.09-.378-.14-.253-.09-.506-.19-.759-.28-.145-.06-.29-.11-.435-.17-.222-.08-.445-.16-.667-.25a24 24 0 0 1-.763-.29 6 6 0 0 1-.369-.14c-.19-.07-.38-.15-.57-.22l-.681-.27c-.167-.06-.334-.13-.501-.2-.172-.06-.344-.13-.516-.2-.232-.09-.464-.19-.696-.28-.183-.07-.365-.15-.547-.22-.127-.05-.254-.11-.381-.16l-.725-.3q-1.032-.42-2.058-.87c-.035-.01-.071-.03-.106-.04a167 167 0 0 1-4.588-2.04c-.576-.26-1.15-.53-1.722-.8-.336-.15-.671-.31-1.006-.47l-1.183-.57c-.336-.16-.671-.33-1.006-.49-.415-.21-.829-.41-1.242-.62-.325-.16-.65-.33-.975-.49a55 55 0 0 1-1.129-.58c-.378-.19-.755-.39-1.132-.58-.352-.19-.704-.37-1.055-.56l-1.058-.57c-.359-.19-.719-.38-1.076-.58l-1.041-.57-1.193-.66c-.289-.17-.578-.33-.866-.5-.391-.22-.782-.44-1.171-.67-.339-.19-.676-.39-1.014-.59-.384-.22-.768-.45-1.15-.67-.324-.2-.647-.39-.97-.59-.338-.2-.677-.4-1.013-.61-.363-.22-.724-.44-1.085-.67a59 59 0 0 1-1.104-.68l-.805-.51c-.415-.26-.83-.53-1.244-.79-.285-.19-.57-.38-.854-.56l-1.148-.75-1.08-.72c-.279-.19-.559-.38-.838-.56-.39-.27-.778-.54-1.166-.8-.306-.21-.613-.42-.919-.64-.336-.23-.671-.47-1.006-.7-.34-.24-.681-.48-1.019-.73l-.971-.69c-.322-.24-.645-.47-.966-.71-.307-.22-.612-.45-.917-.67q-.524-.39-1.044-.78c-.338-.25-.675-.51-1.011-.77l-.87-.66c-.352-.27-.703-.54-1.053-.82a48 48 0 0 1-.872-.68c-.372-.29-.742-.59-1.111-.88-.251-.2-.503-.4-.752-.61-.366-.29-.729-.59-1.092-.89-.276-.22-.552-.45-.826-.67-.344-.29-.684-.57-1.026-.86-.278-.23-.557-.47-.835-.7-.335-.29-.67-.58-1.004-.86-.271-.24-.544-.47-.814-.7l-1.061-.93c-.267-.24-.534-.47-.8-.71q-.403-.36-.802-.72-.532-.48-1.059-.96l-.79-.72c-.305-.28-.61-.57-.913-.85-.316-.29-.629-.59-.943-.89-.284-.27-.568-.53-.85-.8-.277-.27-.552-.53-.827-.8l-.924-.9c-.281-.27-.56-.55-.84-.83-.284-.28-.57-.56-.853-.85-.294-.29-.586-.59-.878-.88l-.853-.87c-.276-.29-.551-.57-.826-.86-.274-.28-.549-.57-.821-.86l-.827-.87c-.295-.32-.59-.63-.882-.94-.265-.29-.526-.58-.789-.86l-.799-.87-.884-.99c-.245-.27-.491-.55-.735-.82q-.5-.57-.997-1.14c-.204-.23-.408-.47-.611-.7-.253-.3-.505-.59-.757-.89-.284-.33-.569-.66-.851-1l-.734-.87c-.26-.32-.52-.63-.778-.94-.296-.36-.59-.72-.884-1.09q-.331-.405-.659-.81-.361-.45-.719-.9c-.274-.35-.549-.69-.821-1.04-.205-.26-.409-.53-.613-.79-.291-.37-.583-.75-.871-1.13-.249-.32-.496-.65-.743-.98-.23-.3-.462-.61-.691-.91-.249-.34-.495-.67-.742-1.01l-.726-.99q-.293-.405-.583-.81-.422-.585-.839-1.17c-.242-.34-.481-.68-.721-1.03q-.308-.435-.612-.87-.382-.555-.759-1.11c-.222-.33-.446-.65-.666-.98l-.68-1.02a68 68 0 0 1-.63-.95c-.258-.39-.513-.79-.768-1.18q-.285-.435-.566-.87c-.259-.41-.515-.82-.772-1.22-.171-.28-.343-.55-.513-.82q-.361-.585-.719-1.17c-.195-.32-.392-.63-.586-.95q-.342-.57-.679-1.14c-.184-.3-.369-.61-.551-.92-.263-.45-.523-.89-.783-1.34l-.432-.75c-.237-.41-.471-.83-.706-1.24-.178-.32-.358-.63-.535-.95-.185-.33-.367-.67-.551-1-.207-.38-.415-.75-.62-1.13-.202-.37-.402-.75-.602-1.12-.182-.34-.365-.69-.545-1.03-.233-.44-.461-.88-.691-1.33-.136-.26-.275-.52-.411-.79-.258-.5-.512-1.01-.766-1.52-.111-.22-.224-.44-.335-.67q-.335-.675-.665-1.35l-.435-.9c-.219-.45-.433-.91-.649-1.36l-.407-.87-.168-.36q-.437-.945-.865-1.89c-.047-.1-.094-.21-.142-.32-.294-.65-.586-1.31-.875-1.97l-.087-.21c-.454-1.04-.901-2.09-1.337-3.14-.061-.15-.122-.3-.183-.44-.099-.24-.198-.49-.297-.73l-.23-.57c-.066-.16-.132-.32-.198-.49-.07-.17-.14-.35-.211-.53-.239-.6-.478-1.2-.712-1.81-.221-.57-.438-1.15-.654-1.72q-.326-.87-.645-1.74-.312-.855-.615-1.71c-.208-.59-.415-1.17-.618-1.76a212 212 0 0 1-1.929-5.89q-.112-.36-.221-.72c-.051-.16-.103-.33-.153-.5-.06-.19-.118-.39-.177-.58-.061-.21-.121-.41-.181-.61a217 217 0 0 1-1.352-4.77l-.174-.65c-.089-.33-.177-.67-.264-1a209 209 0 0 1-1.65-6.8c-.059-.26-.118-.53-.176-.79a202.7 202.7 0 0 1-4.529-34.59 208 208 0 0 1-.202-9.13V880.588l.002-.582q.005-1.011.02-2.021a202 202 0 0 1 .224-7.07 202.5 202.5 0 0 1 4.819-35.144q.366-1.6.757-3.191a199 199 0 0 1 4.214-14.732q.317-.97.645-1.934l.153-.45q.152-.444.306-.887.655-1.889 1.346-3.761.166-.449.335-.896l.103-.278.212-.557.229-.601q.381-.992.771-1.98l.102-.258q.369-.927.747-1.85l.207-.508q.387-.939.784-1.872l.143-.338q.204-.477.411-.951.285-.663.575-1.325.258-.583.521-1.164.23-.518.464-1.036l.517-1.119q.265-.575.532-1.149.246-.52.494-1.037.27-.57.544-1.137.27-.554.543-1.107.27-.551.544-1.101l.455-.899q.343-.677.69-1.353l.329-.633q.392-.757.792-1.511.172-.322.347-.645.399-.747.803-1.49.244-.444.489-.884.329-.599.664-1.196l.483-.852q.389-.686.782-1.368l.294-.502q.44-.757.886-1.51.36-.603.723-1.202l.505-.838q.373-.607.748-1.211.267-.434.537-.866.339-.538.68-1.073.314-.497.631-.992.363-.56.728-1.117.304-.469.611-.935.354-.534.711-1.064.318-.478.64-.954.35-.515.705-1.027.329-.481.66-.96.292-.418.586-.834.424-.606.852-1.208.328-.456.658-.91.342-.476.688-.951.4-.544.803-1.087.328-.445.66-.888.404-.536.81-1.07.314-.414.63-.827.367-.475.736-.949.417-.537.838-1.072.304-.384.61-.766.442-.558.889-1.112.303-.373.607-.744.442-.542.886-1.082.409-.493.821-.984l.706-.839q.394-.465.792-.927a197 197 0 0 1 2.419-2.772q.351-.394.706-.787.453-.505.909-1.009l.757-.823q.433-.47.868-.938.416-.445.833-.886.397-.423.797-.842.476-.496.954-.989.364-.377.729-.751.426-.435.854-.867.443-.448.888-.894.401-.4.805-.797.44-.436.884-.87.463-.45.927-.896.406-.392.813-.781.461-.438.925-.874l.831-.778q.458-.424.918-.847l.88-.806q.475-.43.952-.856.405-.364.812-.726.485-.43.973-.856.442-.389.887-.775.43-.371.863-.739.492-.424.988-.843.501-.422 1.005-.841.38-.318.763-.635.528-.436 1.061-.869.45-.367.901-.731.449-.36.901-.718.489-.391.981-.778.471-.37.945-.736.489-.38.98-.758.443-.339.887-.674a169 169 0 0 1 2.99-2.224q.452-.33.906-.656.544-.394 1.092-.784l.827-.583q.577-.406 1.157-.809l.881-.605q.549-.376 1.099-.75a300 300 0 0 1 2.018-1.346q.501-.329 1.004-.655.488-.318.98-.634.52-.334 1.043-.663.536-.34 1.074-.677.475-.296.952-.589.549-.34 1.099-.675.487-.295.975-.588.544-.327 1.088-.65.568-.335 1.137-.666.461-.27.924-.537.57-.328 1.143-.653l1.013-.572q.531-.296 1.064-.59.532-.295 1.067-.586l1.074-.58q.553-.297 1.109-.591l1.034-.541a222 222 0 0 1 2.304-1.181q.447-.226.893-.449a178 178 0 0 1 2.283-1.122q.559-.268 1.117-.533l1.057-.5q.591-.276 1.185-.549.525-.242 1.051-.482.569-.257 1.139-.511a226 226 0 0 1 2.873-1.258l.185-.078a203 203 0 0 1 4.386-1.809l.088-.035a185 185 0 0 1 2.672-1.042l.648-.246.357-.133.754-.283.445-.164.751-.275.186-.067q1.656-.602 3.325-1.175l.157-.054.988-.335.893-.297.14-.047.592-.194q.924-.301 1.851-.595l.699-.219.486-.151.547-.168.685-.21.21-.062a191 191 0 0 1 4.317-1.248l.14-.039.691-.19.568-.154.38-.102a205 205 0 0 1 2.084-.545l.197-.049q.487-.124.976-.246l.295-.074a199 199 0 0 1 3.638-.865l.94-.212.415-.092.785-.172.56-.119q.95-.204 1.904-.398l.413-.083a203 203 0 0 1 4.513-.856l.637-.111.614-.107.311-.053a198 198 0 0 1 2.201-.361l.186-.029a195 195 0 0 1 3.504-.52l.596-.082q.988-.136 1.978-.261l.48-.059.747-.092 1.101-.129.14-.016a199 199 0 0 1 4.793-.488l.311-.028.261-.023q2.42-.211 4.854-.365l.447-.027a236 236 0 0 1 2.61-.142q1.052-.051 2.107-.092a201 201 0 0 1 3.006-.091q.723-.016 1.447-.028a207 207 0 0 1 3.343-.027zm-75.905 489.705h36.748v-42.34h26.145l10.174-28.76h-36.319v-19.97h43.384l10.14-28.67v-.09h-90.272zm100.657 0h38.346v-119.83h-38.346zm62.312 0h38.345v-42.34h24.08l10.174-28.76h-34.254v-19.97h41.319l10.174-28.76h-89.838zm85.054-39.14-8.731 23.16-6.023 15.98h38.714l4.319-15.98h40.715l4.527 15.98h37.147l-6.39-18.44-7.18-20.7-27.971-80.69h-38.715zm62.43 0h-27.891l13.617-50.39zM864.796 35.39a207 207 0 0 1 6.351.14l.148.004a207 207 0 0 1 4.746.236l.428.026q1.728.11 3.448.248l.385.03.432.037.869.075.185.016a203 203 0 0 1 9.973 1.142l.099.014q1.832.258 3.651.546l.241.04q1.755.28 3.499.59l.369.067a201 201 0 0 1 5.781 1.129l.591.126.658.14.261.058q1.672.364 3.333.756l.771.185.547.132.196.049.889.218.18.046q.908.227 1.813.462l.543.142.759.203.353.094.775.21.522.144.293.081a199 199 0 0 1 4.236 1.229l.15.045q.4.12.799.244l.436.134.71.222.503.159.474.151a176 176 0 0 1 2.555.836l.564.188.292.1a226 226 0 0 1 1.373.47l.613.215.419.148q.956.337 1.909.685l.469.172.726.268.413.155.778.293.196.075.896.343.402.155a202 202 0 0 1 3.865 1.55l.25.102q1 .414 1.994.839l.272.115q.978.42 1.952.85l.314.138a199 199 0 0 1 3.955 1.806 206 206 0 0 1 8.7 4.34 232 232 0 0 1 3.327 1.803q.486.268.971.54a222 222 0 0 1 2.128 1.21q.574.33 1.145.666l.928.545q.575.341 1.146.687l.96.579a229 229 0 0 1 4.135 2.589 185 185 0 0 1 2.056 1.34q.49.323.976.65.524.348 1.045.7l1.039.71q.476.326.95.655.48.334.956.67.541.38 1.079.762.427.305.851.611.566.409 1.13.82.417.306.833.614.55.406 1.098.816.414.311.828.626.563.425 1.123.855.46.355.919.713.452.35.902.704.535.422 1.068.849.428.34.855.682.505.41 1.009.822.429.349.856.702.501.414.999.833.432.36.86.722l.937.8q.439.374.876.753.531.46 1.059.926.398.35.795.702.492.438.98.878.417.374.833.752c.298.27.588.543.888.815.3.28.61.56.91.842l.96.898q.375.354.75.712c.3.29.61.583.91.875.29.284.59.568.88.854.28.273.55.547.83.821.3.3.61.6.91.9l.75.757c.31.317.62.635.94.955.29.303.59.608.88.914l.75.782c.36.375.71.754 1.07 1.132.19.2.38.4.56.601q.51.546 1.02 1.097l.66.719c.36.397.71.797 1.07 1.197.17.185.33.37.5.556.34.381.67.766 1.01 1.15.22.246.43.492.65.739.29.346.59.694.89 1.041.22.261.45.521.67.783q.465.556.93 1.116c.21.248.41.496.62.745.29.348.57.699.86 1.05l.69.853c.29.36.58.722.86 1.083l.63.789c.3.377.59.756.88 1.134.21.262.41.524.61.787l.84 1.104c.21.284.43.568.64.854.24.314.47.631.71.946.25.345.51.689.76 1.036.29.393.57.789.85 1.184.17.227.33.453.49.681.3.417.59.837.89 1.257.18.265.37.529.55.796.28.39.54.784.81 1.176.19.27.37.54.55.811.26.373.51.749.76 1.124.2.312.41.623.62.936.28.422.55.847.83 1.271.14.228.29.456.44.685.31.477.61.957.91 1.437.14.217.28.433.41.65.25.391.49.784.73 1.177.19.317.39.633.58.951l.69 1.14c.18.304.36.608.55.914.27.467.54.935.82 1.404.12.219.25.437.38.656.26.46.52.923.79 1.386l.45.794c.2.372.41.747.62 1.12l.57 1.036c.21.399.43.8.64 1.201.16.305.33.61.49.916.23.43.45.863.68 1.296l.45.883.66 1.287c.14.294.29.587.44.882l.66 1.345c.13.274.27.547.4.821l.72 1.506c.11.244.23.488.35.733l.57 1.254.51 1.097c.03.059.05.118.08.177q.96 2.147 1.89 4.32c.02.067.05.134.08.2.29.678.57 1.357.85 2.039l.21.509.24.609c.4.999.8 2.002 1.18 3.009.06.141.11.281.16.421.08.194.15.388.23.582.06.177.13.354.2.531l.21.582c.08.221.17.442.25.664.22.599.43 1.2.65 1.802.05.157.11.315.17.472.05.154.1.308.16.462.08.243.17.486.25.729.62 1.784 1.21 3.58 1.78 5.386l.15.477c.44 1.4.86 2.807 1.27 4.22.05.184.1.368.16.552q.585 2.087 1.14 4.193c.05.204.11.409.16.614.98 3.774 1.85 7.591 2.6 11.446.05.208.09.416.13.624.11.606.23 1.213.34 1.821l.15.84a181 181 0 0 1 .98 5.932c1.45 9.71 2.21 19.645 2.23 29.754v.405l-.01 1.724q-.03 4.253-.24 8.464c-.01.14-.02.28-.02.42-.11 2.108-.25 4.208-.43 6.299-.01.213-.03.427-.05.64l-.09 1.029c-.02.162-.03.324-.05.486l-.12 1.304-.06.51c-.03.38-.07.759-.11 1.138-.02.105-.03.21-.04.315l-.15 1.37-.06.513c-.05.369-.09.737-.14 1.105-.02.207-.05.414-.08.621l-.12.94c-.03.235-.06.47-.1.704-.04.337-.09.674-.13 1.01-.04.226-.07.451-.1.677-.05.352-.1.705-.16 1.056-.02.148-.04.295-.07.442-.05.374-.11.748-.17 1.121-.02.152-.05.303-.07.455l-.21 1.272c-.03.166-.06.332-.08.499-.06.357-.13.714-.19 1.071-.03.205-.07.411-.11.616-.06.364-.13.728-.19 1.092-.04.172-.07.345-.1.517-.06.295-.11.589-.17.883-.06.323-.12.646-.19.969-.04.24-.09.481-.14.721-.05.257-.1.515-.16.772-.06.336-.13.672-.2 1.007-.04.152-.07.304-.1.456-.07.351-.15.701-.23 1.051-.04.203-.08.406-.13.608-.06.282-.12.564-.19.846-.07.302-.13.604-.2.906-.06.23-.11.459-.16.689-.07.273-.13.547-.2.82-.08.345-.16.689-.25 1.033-.04.185-.09.37-.13.554-.08.307-.16.614-.23.92a16 16 0 0 0-.17.667l-.27 1.05-.12.462-.27 1.009-.18.663-.27.954-.15.558c-.11.371-.21.741-.32 1.11-.05.16-.09.32-.14.48-.08.293-.17.586-.26.878-.08.29-.17.581-.26.871-.05.184-.11.369-.16.553l-.3.979-.18.57c-.11.344-.22.689-.32 1.033l-.15.468c-.1.298-.2.595-.29.892-.11.321-.21.642-.32.962l-.21.644-.21.616-.3.885c-.11.306-.22.613-.32.918-.07.19-.14.38-.2.569l-.33.932c-.09.236-.17.473-.26.708-.07.184-.13.368-.2.552l-.36.979c-.09.225-.17.45-.26.676-.1.284-.21.569-.32.853-.06.169-.13.338-.19.507-.13.321-.25.643-.38.964-.09.237-.18.475-.28.712-.1.267-.21.534-.31.8-.1.239-.2.477-.29.715l-.3.727c-.07.187-.15.374-.23.56-.13.334-.27.668-.41 1.001-.07.16-.14.32-.2.48-.14.317-.27.634-.41.95-.1.251-.21.501-.32.751-.12.266-.23.532-.35.797l-.18.42c-.15.345-.31.69-.46 1.034l-.24.525-.39.874-.27.582c-.14.311-.28.622-.43.932a7 7 0 0 1-.19.402c-.16.345-.32.69-.49 1.034a.6.6 0 0 1-.05.115l-.63 1.319c-.08.152-.15.304-.23.456-.39.812-.8 1.621-1.2 2.426l-.03.064q-1.08 2.117-2.19 4.206c-.64 1.193-1.3 2.379-1.96 3.558-.12.209-.23.419-.35.628-.26.46-.52.919-.79 1.376-.25.435-.5.87-.76 1.303a198 198 0 0 1-9.73 15.021c-.13.19-.27.379-.41.569-.43.602-.86 1.203-1.3 1.8-.17.224-.33.446-.5.668q-1.125 1.526-2.28 3.03l-.33.42c-.2.255-.39.509-.59.763-.1.119-.19.238-.28.357-.21.27-.43.541-.64.81-.53.667-1.07 1.33-1.6 1.991l-.24.289-.48.592-.54.643c-.1.124-.2.248-.31.372-.19.226-.37.453-.56.678-.17.203-.35.405-.52.607-.14.172-.29.344-.44.516l-.42.494c-.52.607-1.05 1.212-1.58 1.813-.16.178-.31.356-.47.534l-.51.568-.45.506q-.795.88-1.59 1.751c-.16.168-.31.334-.47.502l-.54.588c-.11.112-.21.224-.32.337-.23.248-.47.495-.7.742-.14.15-.29.299-.43.449-.21.218-.42.438-.62.655l-.48.49-.51.524-.51.524c-.2.206-.41.411-.61.616l-.33.334-.72.716c-.13.126-.25.25-.38.375-.21.211-.43.423-.64.633-.17.168-.34.336-.52.503-.18.181-.37.361-.55.541-.17.161-.34.321-.5.482l-.57.544c-.19.177-.37.352-.56.528-.18.165-.35.331-.53.496l-.45.422c-.22.212-.45.424-.68.635-.13.123-.27.247-.4.371q-.359.324-.711.647l-.368.333q-.367.333-.736.663-.206.185-.414.369-.352.317-.708.63l-.322.283q-.414.365-.829.727l-.34.295-.718.62-.479.409-.663.564-.458.385-.753.63-.366.304a170 170 0 0 1-1.473 1.209l-.24.195a182 182 0 0 1-1.37 1.1q-.221.177-.444.352-.305.243-.611.483l-.792.618-.264.206a177 177 0 0 1-1.358 1.043l-.677.513-.428.322-.709.529-.561.416q-.366.271-.734.539l-.352.257a149 149 0 0 1-1.326.959l-.642.457-.593.42-.573.403-.646.449-.691.478-.479.328q-.345.237-.691.471l-.648.438-.61.407-.57.379-.625.412q-.361.238-.726.474a92 92 0 0 1-1.198.774l-.669.427a265 265 0 0 1-1.944 1.219q-.252.157-.506.312-.318.196-.638.39-.396.243-.793.482l-.39.235q-.45.27-.901.538l-.495.293-.688.405-.565.329-.684.395-.746.427-.589.334-.66.371-.737.411-.508.28q-.403.224-.808.444l-.619.335q-.283.154-.568.306-.354.191-.71.379l-.836.443-.345.179-.9.468-.495.254-.914.467-.471.237-.708.356-.614.304-.814.401-.665.322-.581.28q-.47.226-.941.449l-.401.19-.707.331a215 215 0 0 1-1.516.698l-.516.236-.918.412-.525.234-.862.38-.495.216q-.486.212-.973.42l-.374.16a259 259 0 0 1-2.889 1.204l-.666.27-.736.295-.814.322-.613.241-.589.228q-.467.181-.934.359l-.56.212q-.35.133-.702.264l-.836.309-.69.253-.824.298-.471.169-.885.312-.694.243q-.367.127-.736.252a109 109 0 0 1-1.365.463l-.833.278-.399.129q-.489.161-.979.32-.368.118-.738.234l-.716.227-.742.23q-.34.106-.682.21-.39.12-.782.236-.36.11-.721.217l-.663.195-.84.245-.614.175-.802.227-.813.226-.624.172-.84.225-.744.198q-.32.086-.643.168l-.73.189q-.573.146-1.148.29l-.367.092-.976.238-.548.134q-.588.14-1.177.277l-.273.065-1.035.236-.541.122-.807.178-.699.152-.898.189-.61.129q-.402.084-.805.164l-.735.15q-2.135.425-4.286.804l-.263.047-.587.101q-1.233.213-2.471.411-.524.083-1.047.163l-.534.083a193 193 0 0 1-2.548.368l-.567.079q-1.434.194-2.875.369l-.214.026a195 195 0 0 1-3.789.417q-1.236.126-2.477.237H1066v202.912H735.933l.432-5.192 17.975-43.14 8.787-39.942 1.598-9.986 3.195-8.388c-.017-.07-3.122-13.307 0-20.771 1.771-4.232 5.005-5.361 6.791-9.586 2.086-4.938.196-8.533 1.997-13.582 2.05-5.746 5.974-7.577 8.388-13.18 3.146-7.305 1.832-12.318 3.995-19.972 3.308-11.708 10.368-16.7 11.982-28.76.828-6.183-1.021-9.821 0-15.976 1.023-6.163 5.169-15.127 5.193-15.179.027-.077 6.176-17.024 7.989-28.36 1.235-7.726-.047-12.322 1.598-19.971 1.857-8.639 6.826-12.411 7.988-21.171 1.541-11.618-5.193-29.557-5.193-29.557-.017-.029-1.77-2.872-4.393-3.196-2.751-.339-9.457 1.59-9.484 1.598l-2.975 10.787C799.267 229.817 734.28 166.4 654.481 166.4c-81.401 0-147.39 65.99-147.39 147.392 0 6.476.418 12.854 1.227 19.109l-1.227.064-9.587 7.589c-.001.006-2.463 21.166 0 34.351 2.061 11.033 9.553 27.089 9.587 27.161l15.976 43.538v16.377l7.191 50.329s2.445 38.84 11.583 61.512c8.722 21.641 32.287 50.248 32.354 50.329-.008.012-3.478 5.194-5.192 8.787-1.586 3.325-2.672 6.501-3.367 9.587H254.352V440.013q0-.952.009-1.903l.009-.79q.016-1.212.045-2.422a209 209 0 0 1 .483-9.874q.01-.126.018-.253l.057-.73a194 194 0 0 1 .381-4.291q.064-.637.13-1.273l.047-.444q.051-.474.106-.948.041-.378.085-.755l.081-.676q.061-.521.127-1.042l.108-.847.081-.62q.082-.618.168-1.233l.067-.491.112-.767q.058-.409.119-.817.09-.595.183-1.19l.068-.443.136-.846.141-.869.124-.728.159-.928.117-.65.175-.975.137-.732q.09-.484.183-.967l.09-.462q.118-.61.241-1.218l.106-.522q.098-.484.199-.966l.14-.663.206-.957.142-.646.207-.927.193-.839.164-.709.202-.851.176-.735a185 185 0 0 1 .612-2.449l.194-.748q.13-.502.264-1.003l.14-.525.261-.963.15-.542q.143-.514.288-1.027l.174-.615.245-.848.204-.695.29-.972.176-.583.261-.852.322-1.032.158-.503.273-.849.212-.658.285-.865a182 182 0 0 1 .784-2.322l.21-.606.347-.986.196-.549.32-.892.251-.687.331-.894.214-.572.327-.866.247-.64q.185-.485.375-.97l.122-.307q.517-1.317 1.051-2.626l.343-.83.216-.52q.192-.46.388-.92l.283-.668q.107-.25.216-.498.525-1.223 1.066-2.436.526-1.175 1.066-2.342l.258-.56.369-.785.325-.687q.118-.249.238-.496a201 201 0 0 1 6.404-12.272l.799-1.398q.926-1.605 1.881-3.19c32.604-54.196 89.86-91.878 156.251-97.529a206 206 0 0 1 15.646-.729l1.757-.008H254.352a204.5 204.5 0 0 1 2.013-28.273 202 202 0 0 1 2.168-12.47 201 201 0 0 1 7.784-27.603q.21-.582.424-1.162a198 198 0 0 1 2.221-5.763 204 204 0 0 1 1.898-4.548 200 200 0 0 1 5.766-12.209 202 202 0 0 1 8.452-14.867 203 203 0 0 1 23.659-30.8 204 204 0 0 1 19.435-18.278 203 203 0 0 1 13.571-10.258 203 203 0 0 1 6.081-4.05 201.4 201.4 0 0 1 60.916-26.08 202.6 202.6 0 0 1 44.205-5.715q1.956-.037 3.919-.037h406.623z" fill="black"/></svg>